<?xml version="1.0" standalone="no"?>
<!DOCTYPE svg PUBLIC "-//W3C//DTD SVG 20010904//EN"
 "http://www.w3.org/TR/2001/REC-SVG-20010904/DTD/svg10.dtd">
<svg version="1.0" xmlns="http://www.w3.org/2000/svg"
 width="1600.000000pt" height="1600.000000pt" viewBox="0 0 1600.000000 1600.000000"
 preserveAspectRatio="xMidYMid meet">
<metadata>
Created by potrace 1.14, written by Peter Selinger 2001-2017
</metadata>
<g transform="translate(0.000000,1600.000000) scale(0.100000,-0.100000)"
fill="#000000" stroke="none">
<path d="M7855 11489 c-132 -27 -225 -67 -315 -132 -87 -65 -210 -196 -210
-225 0 -6 -6 -17 -13 -24 -7 -7 -27 -47 -44 -88 -157 -381 11 -813 386 -991
35 -17 72 -32 82 -34 11 -2 24 -7 30 -10 5 -4 25 -9 42 -12 18 -2 43 -7 57 -9
39 -8 180 -9 231 -1 156 24 318 106 433 221 47 47 116 138 116 152 0 3 8 18
18 32 17 24 53 111 58 137 1 6 7 30 14 55 20 68 19 262 -1 340 -39 153 -101
263 -208 371 -96 96 -218 170 -331 199 -25 7 -54 14 -65 17 -36 9 -239 11
-280 2z"/>
<path d="M294 9535 c-73 -16 -129 -48 -179 -102 -24 -25 -43 -49 -43 -52 1 -3
-7 -24 -17 -46 -10 -22 -19 -42 -20 -45 -6 -27 -16 -70 -21 -90 -14 -53 -11
-345 3 -412 27 -131 77 -214 161 -266 102 -62 170 -67 537 -37 28 2 92 7 144
10 51 3 98 8 102 11 11 6 25 -28 32 -81 4 -22 16 -89 27 -150 12 -60 24 -123
27 -139 2 -16 11 -59 19 -95 8 -36 17 -77 20 -91 3 -14 12 -52 21 -85 8 -33
17 -71 20 -85 2 -14 11 -47 19 -75 8 -27 14 -51 14 -52 0 -2 0 -4 1 -5 0 -2 2
-10 4 -18 23 -116 186 -614 236 -727 11 -23 19 -45 19 -48 0 -3 18 -50 41
-103 148 -350 297 -628 476 -890 76 -111 194 -271 233 -313 8 -10 33 -39 55
-65 53 -63 280 -289 341 -339 26 -22 55 -48 63 -57 9 -10 19 -18 23 -18 5 0
32 -19 61 -43 44 -36 122 -89 252 -172 142 -91 444 -225 600 -265 17 -5 57
-16 90 -25 33 -9 75 -19 94 -21 19 -3 37 -7 41 -9 4 -3 27 -7 51 -10 24 -3 55
-7 69 -10 133 -27 565 -26 705 1 11 2 39 7 62 10 23 3 67 11 99 19 32 7 62 11
66 9 5 -3 8 -1 8 3 0 5 8 10 18 11 46 5 274 75 347 107 17 7 59 25 95 40 36
14 112 50 170 80 152 77 175 89 178 98 2 4 8 7 14 7 5 0 29 13 53 30 24 16 48
30 54 30 6 0 11 4 11 8 0 4 15 16 33 27 81 47 318 232 436 340 75 69 244 239
291 294 47 55 64 74 118 134 17 20 32 39 32 42 0 4 6 12 12 19 14 13 36 42 96
121 20 28 40 52 45 53 4 2 7 10 7 17 0 7 3 15 8 17 12 5 64 78 55 78 -4 0 -3
4 3 8 9 6 89 126 151 227 104 170 353 657 353 690 0 3 9 24 19 48 40 87 61
140 61 151 0 6 6 23 14 38 35 67 163 470 180 568 3 14 5 25 6 25 5 0 13 92 13
161 0 194 -100 300 -336 360 -209 53 -309 6 -435 -202 -54 -90 -157 -295 -154
-306 1 -5 -3 -8 -8 -8 -6 0 -10 -5 -10 -11 0 -17 -162 -343 -172 -347 -4 -2
-8 -12 -8 -23 0 -10 -4 -19 -8 -19 -5 0 -14 -12 -21 -27 -19 -44 -135 -238
-143 -241 -5 -2 -8 -8 -8 -14 0 -16 -226 -340 -277 -398 -8 -8 -23 -26 -34
-40 -76 -96 -326 -355 -400 -415 -268 -219 -478 -346 -720 -436 -96 -35 -282
-85 -349 -94 -25 -3 -67 -9 -95 -13 -63 -8 -356 -7 -410 2 -22 4 -51 9 -65 11
-14 2 -41 7 -60 10 -19 4 -36 7 -37 7 -2 -1 -17 4 -35 9 -18 6 -44 12 -58 15
-128 26 -463 181 -575 266 -5 4 -57 42 -115 85 -100 74 -334 296 -413 393 -20
25 -43 52 -50 60 -7 8 -24 31 -37 50 -13 19 -27 37 -30 40 -4 3 -21 28 -40 55
-19 28 -36 52 -39 55 -3 3 -11 14 -18 25 -7 11 -39 65 -73 120 -63 102 -202
374 -234 455 -10 25 -24 61 -33 80 -43 98 -93 239 -93 259 0 9 -4 21 -8 27 -5
5 -14 29 -21 54 -8 25 -20 62 -27 83 -8 20 -12 37 -9 37 2 0 0 11 -5 25 -5 14
-12 36 -14 48 -3 12 -12 49 -21 82 -8 33 -17 69 -19 81 -1 11 -6 25 -9 31 -3
5 -8 30 -11 55 -3 25 -8 52 -11 59 -6 17 -14 60 -22 119 -12 83 -11 84 27 86
72 4 275 19 385 28 33 3 103 8 155 11 152 10 201 19 265 51 136 68 178 180
151 405 -21 174 -68 300 -140 373 -49 50 -90 72 -172 91 -72 17 -2255 17
-2330 0z"/>
<path d="M12760 8090 c-19 -4 -50 -10 -69 -14 -37 -7 -77 -46 -83 -80 -2 -12
-3 -428 -2 -926 0 -666 4 -922 13 -970 39 -209 106 -343 241 -481 70 -71 274
-183 372 -203 13 -3 34 -8 48 -11 14 -3 36 -8 50 -11 14 -2 48 -9 75 -14 265
-52 666 -10 882 92 38 17 74 37 81 44 6 7 21 16 32 19 11 3 20 10 20 15 0 5 8
11 18 14 52 17 201 198 244 296 19 43 48 118 48 125 0 3 0 6 1 8 4 13 11 48
15 77 3 19 9 49 13 65 9 33 13 1775 5 1842 -6 51 -38 87 -90 103 -49 15 -296
22 -349 10 -74 -16 -83 -18 -103 -31 -11 -7 -26 -24 -32 -38 -14 -31 -30 -121
-21 -121 8 0 5 -1584 -3 -1668 -15 -161 -82 -263 -209 -322 -37 -18 -79 -33
-92 -34 -14 0 -25 -3 -25 -6 0 -13 -197 -17 -280 -6 -59 8 -169 47 -196 68
-50 40 -94 89 -118 131 -16 26 -25 47 -22 47 3 0 1 11 -4 26 -21 55 -23 119
-24 969 -1 724 -4 886 -15 913 -13 32 -49 58 -94 69 -37 8 -290 11 -327 3z"/>
<path d="M15524 8083 c-69 -16 -99 -39 -111 -85 -5 -18 -8 -584 -8 -1258 1
-1152 2 -1228 18 -1263 27 -57 100 -78 262 -79 161 -1 247 17 286 58 l24 26 2
1254 c3 1377 7 1296 -56 1328 -44 23 -75 27 -221 30 -88 2 -156 -2 -196 -11z"/>
<path d="M10018 8075 c-21 -7 -38 -10 -38 -7 0 12 -46 -63 -58 -93 -35 -95
-46 -278 -19 -331 26 -50 55 -54 451 -54 l356 0 0 -1041 c0 -1041 0 -1042 21
-1076 20 -33 82 -68 100 -57 5 3 9 2 9 -3 0 -4 17 -8 38 -9 20 -1 66 -2 102
-3 210 -6 302 22 318 99 5 19 8 497 7 1063 l0 1027 315 1 c383 0 391 1 433 44
19 18 56 128 59 173 1 17 5 32 8 32 11 0 4 176 -8 197 -29 53 8 51 -1062 51
-790 0 -1003 -2 -1032 -13z"/>
</g>
</svg>
